<svg width="50" height="17" viewBox="0 0 50 17" fill="none" xmlns="http://www.w3.org/2000/svg">
<path d="M0.124681 6.376L6.91068 1.84V3.514L1.65468 6.988V7.06L6.91068 10.534V12.208L0.124681 7.672V6.376ZM11.4937 14.368C11.4937 14.788 11.7217 15.124 12.1777 15.376C12.6457 15.64 13.3177 15.772 14.1937 15.772C14.6617 15.772 15.0817 15.724 15.4537 15.628C15.8377 15.544 16.1617 15.424 16.4257 15.268C16.7017 15.124 16.9117 14.956 17.0557 14.764C17.1997 14.572 17.2717 14.368 17.2717 14.152C17.2717 13.768 17.1097 13.51 16.7857 13.378C16.4737 13.258 15.9997 13.198 15.3637 13.198H13.8157C13.5397 13.198 13.2937 13.186 13.0777 13.162C12.8617 13.15 12.6577 13.114 12.4657 13.054C12.1057 13.258 11.8537 13.468 11.7097 13.684C11.5657 13.9 11.4937 14.128 11.4937 14.368ZM9.98165 14.584C9.98165 14.236 10.1017 13.894 10.3417 13.558C10.5937 13.234 10.9477 12.94 11.4037 12.676V12.604C11.1637 12.472 10.9537 12.292 10.7737 12.064C10.5937 11.824 10.5037 11.518 10.5037 11.146C10.5037 10.858 10.5937 10.57 10.7737 10.282C10.9657 9.982 11.2297 9.718 11.5657 9.49V9.418C11.2537 9.19 10.9897 8.89 10.7737 8.518C10.5577 8.134 10.4497 7.678 10.4497 7.15C10.4497 6.658 10.5457 6.22 10.7377 5.836C10.9297 5.44 11.1877 5.104 11.5117 4.828C11.8357 4.552 12.2077 4.342 12.6277 4.198C13.0597 4.054 13.5157 3.982 13.9957 3.982C14.4877 3.982 14.9317 4.054 15.3277 4.198H18.9456V5.548H16.7497C16.9297 5.74 17.0917 5.98 17.2357 6.268C17.3797 6.544 17.4517 6.856 17.4517 7.204C17.4517 7.684 17.3617 8.11 17.1817 8.482C17.0017 8.854 16.7557 9.172 16.4437 9.436C16.1317 9.688 15.7657 9.88 15.3457 10.012C14.9257 10.144 14.4757 10.21 13.9957 10.21C13.7797 10.21 13.5457 10.186 13.2937 10.138C13.0537 10.09 12.8137 10.018 12.5737 9.922C12.1657 10.186 11.9617 10.492 11.9617 10.84C11.9617 11.164 12.1117 11.398 12.4117 11.542C12.7117 11.686 13.1437 11.758 13.7077 11.758H15.5797C16.7317 11.758 17.5837 11.926 18.1357 12.262C18.6997 12.586 18.9817 13.126 18.9817 13.882C18.9817 14.302 18.8617 14.698 18.6217 15.07C18.3937 15.442 18.0637 15.766 17.6317 16.042C17.1997 16.33 16.6777 16.552 16.0657 16.708C15.4537 16.876 14.7697 16.96 14.0137 16.96C12.7657 16.96 11.7817 16.756 11.0617 16.348C10.3417 15.952 9.98165 15.364 9.98165 14.584ZM13.9957 9.058C14.4997 9.058 14.9317 8.89 15.2917 8.554C15.6517 8.218 15.8317 7.75 15.8317 7.15C15.8317 6.574 15.6517 6.112 15.2917 5.764C14.9317 5.416 14.4997 5.242 13.9957 5.242C13.4917 5.242 13.0597 5.416 12.6997 5.764C12.3397 6.112 12.1597 6.574 12.1597 7.15C12.1597 7.75 12.3397 8.218 12.6997 8.554C13.0597 8.89 13.4917 9.058 13.9957 9.058ZM21.6206 10.696C22.1246 11.044 22.6526 11.326 23.2046 11.542C23.7566 11.746 24.3986 11.848 25.1306 11.848C25.8866 11.848 26.4386 11.734 26.7866 11.506C27.1346 11.278 27.3086 10.99 27.3086 10.642C27.3086 10.318 27.0986 10.036 26.6786 9.796C26.2586 9.556 25.5626 9.316 24.5906 9.076C24.1586 8.968 23.7386 8.836 23.3306 8.68C22.9346 8.524 22.5866 8.344 22.2866 8.14C21.9866 7.924 21.7466 7.69 21.5666 7.438C21.3866 7.174 21.2966 6.88 21.2966 6.556C21.2966 6.184 21.3746 5.842 21.5306 5.53C21.6986 5.218 21.9446 4.948 22.2686 4.72C22.5926 4.492 22.9886 4.312 23.4566 4.18C23.9246 4.048 24.4646 3.982 25.0766 3.982C25.7726 3.982 26.4326 4.102 27.0566 4.342C27.6926 4.57 28.2326 4.834 28.6766 5.134L27.8486 6.25C27.4526 5.986 27.0266 5.77 26.5706 5.602C26.1146 5.434 25.6226 5.35 25.0946 5.35C24.3506 5.35 23.8286 5.458 23.5286 5.674C23.2406 5.89 23.0966 6.154 23.0966 6.466C23.0966 6.802 23.3366 7.078 23.8166 7.294C24.2966 7.51 24.9146 7.714 25.6706 7.906C26.7746 8.182 27.6206 8.518 28.2086 8.914C28.8086 9.298 29.1086 9.838 29.1086 10.534C29.1086 10.906 29.0186 11.254 28.8386 11.578C28.6586 11.902 28.3946 12.19 28.0466 12.442C27.7106 12.682 27.2906 12.868 26.7866 13C26.2946 13.144 25.7246 13.216 25.0766 13.216C24.2366 13.216 23.4446 13.084 22.7006 12.82C21.9566 12.544 21.3146 12.22 20.7746 11.848L21.6206 10.696ZM33.5836 15.88H32.0356L37.9396 0.219999H39.4876L33.5836 15.88ZM49.8126 7.672L43.0266 12.208V10.534L48.2826 7.06V6.988L43.0266 3.514V1.84L49.8126 6.376V7.672Z" />
</svg>
